<?xml version="1.0" standalone="no"?>
<!DOCTYPE svg PUBLIC "-//W3C//DTD SVG 20010904//EN"
 "http://www.w3.org/TR/2001/REC-SVG-20010904/DTD/svg10.dtd">
<svg version="1.0" xmlns="http://www.w3.org/2000/svg"
 width="260.000000pt" height="348.000000pt" viewBox="0 0 260.000000 348.000000"
 preserveAspectRatio="xMidYMid meet">

<g transform="translate(0.000000,348.000000) scale(0.100000,-0.100000)"
fill="#000000" stroke="none">
<path d="M1620 3442 c-112 -40 -212 -234 -195 -376 6 -42 3 -55 -13 -74 -28
-32 -61 -21 -128 39 -56 51 -99 66 -153 54 -16 -3 -34 -12 -40 -19 -8 -9 -2
-11 26 -8 33 4 40 0 107 -72 70 -75 72 -76 121 -76 30 0 60 6 73 16 27 19 24
21 50 -32 28 -54 84 -114 108 -114 11 0 41 7 68 15 27 8 51 13 54 10 9 -9 4
-67 -9 -96 -9 -23 -18 -29 -43 -29 -18 0 -55 -7 -83 -15 l-50 -15 -36 34 c-20
19 -57 42 -82 51 -53 21 -68 13 -96 -50 -25 -54 -24 -83 6 -148 22 -48 24 -61
16 -98 -9 -40 -8 -46 12 -61 33 -25 125 -48 194 -48 l60 0 6 35 c3 20 26 63
53 98 l46 62 -5 75 -6 75 20 -25 c41 -52 73 -115 89 -174 l17 -61 16 32 c10
18 17 54 17 80 0 35 3 44 10 33 8 -12 10 -10 11 10 2 49 -3 84 -22 143 -19 61
-25 102 -11 81 4 -7 7 106 7 250 0 253 -1 262 -23 306 -13 25 -38 55 -55 67
-32 21 -109 35 -137 25z m32 -117 c10 -59 35 -125 64 -169 17 -25 22 -42 16
-48 -6 -6 -5 -20 4 -38 22 -43 -10 -103 -43 -82 -17 11 -34 52 -28 65 4 6 -1
3 -10 -8 -8 -11 -21 -38 -27 -60 -6 -22 -13 -42 -14 -43 -1 -2 -30 9 -63 24
-55 24 -60 29 -47 43 24 26 22 40 -4 54 -31 15 -40 76 -16 97 9 7 16 24 16 38
0 61 88 178 128 170 10 -2 19 -18 24 -43z"/>
<path d="M1491 3134 c0 -11 3 -14 6 -6 3 7 2 16 -1 19 -3 4 -6 -2 -5 -13z"/>
<path d="M1694 3077 c-6 -17 2 -37 16 -37 15 0 19 29 5 40 -12 10 -16 9 -21
-3z"/>
<path d="M1092 2866 c-20 -19 -35 -37 -32 -40 3 -3 26 0 50 5 24 6 54 8 66 5
16 -4 24 1 33 20 15 35 7 44 -40 44 -31 0 -47 -7 -77 -34z"/>
<path d="M1850 2731 c0 -6 4 -13 10 -16 6 -3 7 1 4 9 -7 18 -14 21 -14 7z"/>
<path d="M588 2705 c12 -16 50 -70 83 -119 48 -69 58 -90 48 -97 -25 -16 -34
-9 -83 66 -57 88 -76 107 -73 76 1 -12 6 -21 12 -21 5 0 17 -10 24 -22 30 -47
73 -130 69 -132 -1 -2 -13 -8 -24 -14 -19 -10 -24 -8 -38 12 -8 14 -19 53 -24
88 -7 48 -10 54 -12 28 -2 -34 -2 -34 -20 20 -10 30 -18 47 -19 38 -1 -10 10
-52 24 -95 27 -86 31 -129 13 -136 -7 -3 4 -6 25 -6 22 -1 51 -10 67 -21 18
-13 31 -16 35 -10 10 16 21 12 34 -12 11 -22 11 -21 7 7 -4 25 1 34 27 53 31
22 32 22 35 2 2 -11 8 -20 14 -20 6 0 8 11 3 27 -5 21 -1 31 22 49 26 22 27
23 6 24 -35 0 -53 11 -53 31 0 10 -3 19 -7 19 -5 0 -21 16 -36 36 -28 35 -29
36 -13 75 21 52 20 69 -4 69 -27 0 -54 -52 -37 -71 14 -15 -12 2 -48 32 -11 9
-33 25 -50 35 l-30 19 23 -30z m167 -158 c18 -31 18 -32 0 -17 -17 14 -18 13
-11 -5 4 -12 -5 -6 -23 15 -17 19 -29 40 -26 46 2 7 -12 27 -31 45 -19 18 -34
38 -34 43 0 15 103 -89 125 -127z"/>
<path d="M709 2573 c12 -24 31 -39 31 -25 0 5 -10 17 -21 28 -22 19 -22 19
-10 -3z"/>
<path d="M501 2599 c1 -30 5 -67 9 -84 4 -17 5 5 2 50 -6 93 -13 114 -11 34z"/>
<path d="M610 2636 c0 -2 11 -24 25 -47 30 -53 33 -44 5 11 -18 35 -30 49 -30
36z"/>
<path d="M184 2283 c-87 -119 -163 -223 -167 -230 -6 -10 2 -18 26 -28 29 -12
38 -24 52 -65 l17 -51 -36 -60 c-20 -33 -36 -64 -36 -69 0 -5 19 -20 43 -34
28 -17 47 -37 55 -58 24 -67 18 -68 184 32 84 50 161 97 170 104 13 10 21 60
40 279 19 211 21 267 11 267 -8 0 -13 12 -13 30 0 24 -7 33 -37 48 -21 10 -46
17 -55 14 -10 -2 -31 6 -47 17 -16 12 -33 21 -38 21 -5 0 -81 -98 -169 -217z"/>
<path d="M1999 2283 c-27 -26 -64 -68 -81 -95 -17 -26 -35 -48 -40 -48 -4 0
-7 -3 -7 -7 3 -16 -2 -28 -16 -47 -11 -15 -17 -16 -28 -8 -11 10 -24 -8 -68
-91 l-54 -102 -2 40 c-5 76 -25 150 -65 236 l-40 87 -62 -5 c-70 -6 -143 11
-219 51 l-47 26 -26 -58 c-84 -187 -81 -302 13 -499 l35 -73 28 20 c15 11 56
27 91 36 51 13 75 14 134 5 40 -6 84 -15 99 -21 l27 -10 -7 -84 c-4 -56 -3
-85 4 -90 8 -4 8 -15 2 -31 -9 -23 -4 -29 48 -67 31 -24 65 -53 75 -65 10 -12
26 -25 37 -28 10 -3 81 -53 157 -111 148 -114 141 -111 226 -75 54 23 48 -3
82 371 14 151 27 294 30 318 l6 42 -39 0 c-30 0 -43 -6 -54 -22 l-14 -21 -47
32 c-31 21 -47 39 -48 54 0 19 -1 20 -8 4 -7 -18 -7 -18 -28 0 -21 17 -21 20
-8 50 17 39 44 35 46 -6 1 -26 1 -26 8 -2 6 23 7 23 24 7 9 -10 21 -15 26 -12
5 4 16 -1 24 -9 24 -24 44 -18 51 15 3 20 12 30 23 30 13 1 11 5 -9 16 -17 9
-28 23 -28 35 0 36 -60 203 -77 217 -22 16 -44 15 -37 -2 3 -7 -6 -48 -20 -90
-30 -89 -33 -110 -6 -46 20 48 27 34 9 -19 -8 -22 -16 -30 -28 -27 -9 2 -26 7
-39 11 -23 7 -51 45 -32 45 5 0 10 11 10 24 0 14 5 37 10 52 12 31 21 94 14
94 -3 0 -27 -21 -55 -47z m12 -34 c-17 -22 -27 -47 -24 -56 4 -9 8 -11 12 -4
4 6 7 -5 7 -23 0 -29 -3 -33 -17 -26 -9 5 -20 6 -24 2 -5 -4 -6 0 -3 8 17 44
18 52 3 27 -18 -32 -33 -30 -16 1 6 12 11 24 11 29 -1 4 -8 -5 -16 -20 -9 -16
-18 -26 -21 -23 -5 5 45 86 53 86 2 0 1 -8 -3 -17 -3 -10 9 -1 26 20 43 49 49
47 12 -4z m178 -23 c6 -25 11 -57 12 -73 l1 -28 7 25 c6 23 8 20 19 -22 7 -26
12 -55 12 -64 0 -28 -18 -3 -23 31 l-4 30 -2 -33 c0 -22 -5 -32 -13 -30 -8 3
-15 36 -20 91 -3 47 -9 96 -13 108 -4 13 -3 19 3 15 5 -3 15 -26 21 -50z m-21
-116 c-1 -45 -1 -45 -8 10 -6 53 -7 53 -8 13 -2 -32 -6 -43 -18 -43 -12 0 -15
6 -10 23 4 12 12 47 18 77 l12 55 7 -45 c4 -25 7 -65 7 -90z m-268 2 c0 -4 -7
-18 -16 -30 -9 -13 -14 -24 -13 -26 78 -57 129 -99 129 -107 0 -16 -10 -10
-79 49 l-67 58 15 32 c13 29 31 43 31 24z m38 -17 c6 0 12 -3 12 -7 0 -5 0
-15 0 -23 0 -8 -6 -15 -14 -15 -20 0 -37 25 -30 45 4 9 10 13 13 8 3 -4 12 -8
19 -8z m112 -51 c0 -10 -24 -54 -29 -54 -4 0 -21 12 -38 28 -26 22 -30 31 -23
50 l9 22 41 -21 c22 -12 40 -23 40 -25z m26 -36 c-8 -39 -13 -45 -28 -30 -9 9
-9 18 0 37 17 37 36 32 28 -7z m21 -125 c-10 -9 -82 33 -85 51 -3 15 4 13 43
-14 25 -17 44 -34 42 -37z"/>
<path d="M1114 354 c-4 -14 -4 -53 0 -86 4 -40 1 -83 -9 -126 -14 -59 -14 -67
1 -89 19 -30 79 -56 110 -49 38 10 57 36 50 69 -8 39 -15 46 -27 24 -16 -28
-63 -22 -92 12 -23 28 -24 33 -19 150 5 116 0 150 -14 95z"/>
<path d="M1450 74 c0 -69 55 -97 98 -51 14 15 22 36 22 58 l-1 34 -20 -27
c-19 -26 -69 -40 -69 -20 0 5 -7 17 -15 28 -13 18 -14 16 -15 -22z"/>
</g>
</svg>
